<svg width="20" height="18" fill="none" xmlns="http://www.w3.org/2000/svg"><path fill-rule="evenodd" clip-rule="evenodd" d="M20 9c0 .34-.132.668-.366.909a1.233 1.233 0 01-.884.377H4.27l5.366 5.517a1.29 1.29 0 01.367.91 1.319 1.319 0 01-.367.91 1.25 1.25 0 01-.885.377 1.221 1.221 0 01-.885-.377L.367 9.91A1.288 1.288 0 010 9a1.317 1.317 0 01.367-.91l7.5-7.713C8.1.136 8.418 0 8.75 0c.332 0 .65.136.885.377s.367.569.367.91c0 .341-.132.669-.367.91L4.27 7.715H18.75c.332 0 .65.135.884.376.234.241.366.568.366.909z" fill="#fff"/></svg>